# xmcd CD database file
#
# Track frame offsets:
#	150
#	22275
#	49725
#	75225
#	110100
#	133125
#
# Disc length: 2044 seconds
#
# Revision: 0
# Processed by: cddbd v1.5.1PL0 Copyright (c) Steve Scherf et al.
# Submitted via: CDex 1.51
#
DISCID=4e07fa06
DTITLE=aerophonon - what's your name? Volume 1 〜namco space games name entry music collection
DYEAR=2005
DGENRE=Game
TTITLE0=Starblade - Signals from infinite direction - Sword of Diastasion
TTITLE1=Galaga 2nd-5th ranking - debris monologue mix - beep on magic
TTITLE2=Galaga 1st ranking - illusion of shooting star mix - jazz groove electro
TTITLE3=Gaplus 2nd-5th ranking - breakout mix - jazz groove electro
TTITLE4=Gaplus 2nd-5th ranking - shifty spacy scrap boogie - Moon Smooth and the Comfort Combo
TTITLE5=Galaga'88 game over - midsummer night bugs rambled - Sommench
EXTD=YEAR: 2005
EXTT0=
EXTT1=
EXTT2=
EXTT3=
EXTT4=
EXTT5=
PLAYORDER=
